{
  "accessors": [
    {
      "bufferView": 2,
      "componentType": 5126,
      "count": 15122,
      "max": [
        0.19978412985801697,
        0.27432501316070557,
        0.21185754239559174
      ],
      "min": [
        -0.20015168190002441,
        -0.23277978599071503,
        -0.20407821238040924
      ],
      "type": "VEC3"
    },
    {
      "bufferView": 2,
      "byteOffset": 181464,
      "componentType": 5126,
      "count": 15122,
      "max": [
        0.9998419880867004,
        0.9999966025352478,
        0.9998015761375427
      ],
      "min": [
        -0.9998833537101746,
        -1.0,
        -0.9998290538787842
      ],
      "type": "VEC3"
    },
    {
      "bufferView": 3,
      "componentType": 5126,
      "count": 15122,
      "max": [
        0.9999940991401672,
        0.9998400211334229,
        0.9978426098823547,
        1.0
      ],
      "min": [
        -0.9995714426040649,
        -0.9999962449073792,
        -0.9999566674232483,
        -1.0
      ],
      "type": "VEC4"
    },
    {
      "bufferView": 1,
      "componentType": 5126,
      "count": 15122,
      "max": [
        0.9991655349731445,
        0.9429337382316589
      ],
      "min": [
        0.000834427832160145,
        0.0008344269590452313
      ],
      "type": "VEC2"
    },
    {
      "bufferView": 1,
      "byteOffset": 120976,
      "componentType": 5126,
      "count": 15122,
      "max": [
        0.9991655349731445,
        0.9429337382316589
      ],
      "min": [
        0.000834427832160145,
        0.0008344269590452313
      ],
      "type": "VEC2"
    },
    {
      "bufferView": 1,
      "byteOffset": 241952,
      "componentType": 5126,
      "count": 15122,
      "max": [
        0.9991655349731445,
        0.9429337382316589
      ],
      "min": [
        0.000834427832160145,
        0.0008344269590452313
      ],
      "type": "VEC2"
    },
    {
      "bufferView": 0,
      "componentType": 5125,
      "count": 77988,
      "type": "SCALAR"
    }
  ],
  "asset": {
    "extras": {
      "author": "sv1nks (https://sketchfab.com/sv1nks)",
      "license": "CC-BY-4.0 (http://creativecommons.org/licenses/by/4.0/)",
      "source": "https://sketchfab.com/3d-models/money-bag-3b5cabdc5af24bc4b799e53cc5e34873",
      "title": "money bag"
    },
    "generator": "Sketchfab-16.15.0",
    "version": "2.0"
  },
  "bufferViews": [
    {
      "buffer": 0,
      "byteLength": 311952,
      "name": "floatBufferViews",
      "target": 34963
    },
    {
      "buffer": 0,
      "byteLength": 362928,
      "byteOffset": 311952,
      "byteStride": 8,
      "name": "floatBufferViews",
      "target": 34962
    },
    {
      "buffer": 0,
      "byteLength": 362928,
      "byteOffset": 674880,
      "byteStride": 12,
      "name": "floatBufferViews",
      "target": 34962
    },
    {
      "buffer": 0,
      "byteLength": 241952,
      "byteOffset": 1037808,
      "byteStride": 16,
      "name": "floatBufferViews",
      "target": 34962
    }
  ],
  "buffers": [
    {
      "byteLength": 1279760,
      "uri": "scene.bin"
    }
  ],
  "images": [
    {
      "uri": "textures/base_material_baseColor.jpeg"
    },
    {
      "uri": "textures/base_material_metallicRoughness.png"
    },
    {
      "uri": "textures/base_material_normal.png"
    }
  ],
  "materials": [
    {
      "doubleSided": true,
      "name": "base_material",
      "normalTexture": {
        "index": 2
      },
      "pbrMetallicRoughness": {
        "baseColorTexture": {
          "index": 0
        },
        "metallicRoughnessTexture": {
          "index": 1
        }
      }
    }
  ],
  "meshes": [
    {
      "name": "mesh_base_material_0",
      "primitives": [
        {
          "attributes": {
            "NORMAL": 1,
            "POSITION": 0,
            "TANGENT": 2,
            "TEXCOORD_0": 3,
            "TEXCOORD_1": 4,
            "TEXCOORD_2": 5
          },
          "indices": 6,
          "material": 0,
          "mode": 4
        }
      ]
    }
  ],
  "nodes": [
    {
      "children": [
        1
      ],
      "matrix": [
        1.0,
        0.0,
        0.0,
        0.0,
        0.0,
        2.220446049250313e-16,
        -1.0,
        0.0,
        0.0,
        1.0,
        2.220446049250313e-16,
        0.0,
        0.0,
        0.0,
        0.0,
        1.0
      ],
      "name": "Sketchfab_model"
    },
    {
      "children": [
        2
      ],
      "matrix": [
        0.009999999776482582,
        0.0,
        0.0,
        0.0,
        0.0,
        0.0,
        0.009999999776482582,
        0.0,
        0.0,
        -0.009999999776482582,
        0.0,
        0.0,
        0.0,
        0.0,
        0.0,
        1.0
      ],
      "name": "1b5fc34d55ca_money_bag_min.fbx"
    },
    {
      "children": [
        3
      ],
      "name": "RootNode"
    },
    {
      "children": [
        4
      ],
      "matrix": [
        196.90365600585938,
        0.0,
        0.0,
        0.0,
        0.0,
        196.90365600585918,
        8.606932162750396e-06,
        0.0,
        0.0,
        -8.606932162750396e-06,
        196.90365600585918,
        0.0,
        0.0,
        0.0,
        0.0,
        1.0
      ],
      "name": "mesh"
    },
    {
      "mesh": 0,
      "name": "mesh_base_material_0"
    }
  ],
  "samplers": [
    {
      "magFilter": 9729,
      "minFilter": 9987,
      "wrapS": 10497,
      "wrapT": 10497
    }
  ],
  "scene": 0,
  "scenes": [
    {
      "name": "Sketchfab_Scene",
      "nodes": [
        0
      ]
    }
  ],
  "textures": [
    {
      "sampler": 0,
      "source": 0
    },
    {
      "sampler": 0,
      "source": 1
    },
    {
      "sampler": 0,
      "source": 2
    }
  ]
}
